<?xml version="1.0" encoding="UTF-8" standalone="no"?>
<!-- Created with Inkscape (http://www.inkscape.org/) -->

<svg
   xmlns:dc="http://purl.org/dc/elements/1.1/"
   xmlns:cc="http://creativecommons.org/ns#"
   xmlns:rdf="http://www.w3.org/1999/02/22-rdf-syntax-ns#"
   xmlns:svg="http://www.w3.org/2000/svg"
   xmlns="http://www.w3.org/2000/svg"
   xmlns:sodipodi="http://sodipodi.sourceforge.net/DTD/sodipodi-0.dtd"
   xmlns:inkscape="http://www.inkscape.org/namespaces/inkscape"
   width="765"
   height="990"
   id="svg2"
   version="1.1"
   inkscape:version="0.48.4 r9939"
   sodipodi:docname="flat-bracket.svg">
  <defs
     id="defs4" />
  <sodipodi:namedview
     id="base"
     pagecolor="#ffffff"
     bordercolor="#666666"
     borderopacity="1.0"
     inkscape:pageopacity="0.0"
     inkscape:pageshadow="2"
     inkscape:zoom="0.55252525"
     inkscape:cx="382.5"
     inkscape:cy="495"
     inkscape:document-units="px"
     inkscape:current-layer="g3852"
     showgrid="false"
     inkscape:window-width="971"
     inkscape:window-height="744"
     inkscape:window-x="43"
     inkscape:window-y="0"
     inkscape:window-maximized="0"
     fit-margin-top="0"
     fit-margin-left="0"
     fit-margin-right="0"
     fit-margin-bottom="0" />
  <metadata
     id="metadata7">
    <rdf:RDF>
      <cc:Work
         rdf:about="">
        <dc:format>image/svg+xml</dc:format>
        <dc:type
           rdf:resource="http://purl.org/dc/dcmitype/StillImage" />
        <dc:title></dc:title>
      </cc:Work>
    </rdf:RDF>
  </metadata>
  <g
     inkscape:label="Layer 1"
     inkscape:groupmode="layer"
     id="layer1"
     transform="translate(-0.3125,-62.03125)">
    <g
       id="g3852"
       transform="matrix(0,1,-1,0,1056.3617,66.608967)">
      <path
         sodipodi:nodetypes="sssccccccccssssccccccccss"
         inkscape:connector-curvature="0"
         id="rect2985"
         d="m 35.933071,371.54724 70.866139,0 c 19.62992,0 35.43307,15.80315 35.43307,35.43307 l -3e-5,74.57849 -28.84606,0 0,120.47245 28.84645,0 -3.6e-4,223.55928 -28.84645,0 0,120.47244 28.84645,0 0,70.36613 c 0,19.6299 -15.80315,35.4331 -35.43307,35.4331 l -70.866139,0 C 16.30315,1051.8622 0.5,1036.059 0.5,1016.4291 l 0,-70.36613 27.846457,0 0,-120.47244 -27.846457,0 3.6e-4,-223.55928 27.846457,0 0,-120.47245 -27.846457,0 L 0.5,406.98031 c -9.476e-5,-19.62992 15.80315,-35.43307 35.433071,-35.43307 z"
         style="fill:none;stroke:#0000ff;stroke-width:0.35433072;stroke-miterlimit:4" />
      <g
         id="g3816">
        <g
           id="g3771">
          <g
             transform="translate(0,6.7556835)"
             id="g3761">
            <path
               sodipodi:type="arc"
               style="fill:none;stroke:#ff0000;stroke-width:0.50826722;stroke-miterlimit:4;stroke-dasharray:none"
               id="path2989"
               sodipodi:cx="31.761482"
               sodipodi:cy="1003.163"
               sodipodi:rx="11.832709"
               sodipodi:ry="11.832709"
               d="m 43.594192,1003.163 c 0,6.535 -5.297685,11.8327 -11.83271,11.8327 -6.535025,0 -11.832709,-5.2977 -11.832709,-11.8327 0,-6.535 5.297684,-11.83268 11.832709,-11.83268 6.535025,0 11.83271,5.29768 11.83271,11.83268 z"
               transform="matrix(0.74754286,0,0,0.74754286,1.2372457,257.98632)" />
            <path
               transform="matrix(0.74754286,0,0,0.74754286,93.36323,257.98632)"
               d="m 43.594192,1003.163 c 0,6.535 -5.297685,11.8327 -11.83271,11.8327 -6.535025,0 -11.832709,-5.2977 -11.832709,-11.8327 0,-6.535 5.297684,-11.83268 11.832709,-11.83268 6.535025,0 11.83271,5.29768 11.83271,11.83268 z"
               sodipodi:ry="11.832709"
               sodipodi:rx="11.832709"
               sodipodi:cy="1003.163"
               sodipodi:cx="31.761482"
               id="path3759"
               style="fill:none;stroke:#ff0000;stroke-width:0.50826722;stroke-miterlimit:4;stroke-dasharray:none"
               sodipodi:type="arc" />
          </g>
          <g
             id="g3765"
             transform="translate(0,-260.43307)">
            <path
               transform="matrix(0.74754286,0,0,0.74754286,1.2372457,257.98632)"
               d="m 43.594192,1003.163 c 0,6.535 -5.297685,11.8327 -11.83271,11.8327 -6.535025,0 -11.832709,-5.2977 -11.832709,-11.8327 0,-6.535 5.297684,-11.83268 11.832709,-11.83268 6.535025,0 11.83271,5.29768 11.83271,11.83268 z"
               sodipodi:ry="11.832709"
               sodipodi:rx="11.832709"
               sodipodi:cy="1003.163"
               sodipodi:cx="31.761482"
               id="path3767"
               style="fill:none;stroke:#ff0000;stroke-width:0.50826722;stroke-miterlimit:4;stroke-dasharray:none"
               sodipodi:type="arc" />
            <path
               sodipodi:type="arc"
               style="fill:none;stroke:#ff0000;stroke-width:0.50826722;stroke-miterlimit:4;stroke-dasharray:none"
               id="path3769"
               sodipodi:cx="31.761482"
               sodipodi:cy="1003.163"
               sodipodi:rx="11.832709"
               sodipodi:ry="11.832709"
               d="m 43.594192,1003.163 c 0,6.535 -5.297685,11.8327 -11.83271,11.8327 -6.535025,0 -11.832709,-5.2977 -11.832709,-11.8327 0,-6.535 5.297684,-11.83268 11.832709,-11.83268 6.535025,0 11.83271,5.29768 11.83271,11.83268 z"
               transform="matrix(0.74754286,0,0,0.74754286,93.36323,257.98632)" />
          </g>
        </g>
        <path
           sodipodi:type="arc"
           style="fill:none;stroke:#ff0000;stroke-width:0.24928494;stroke-miterlimit:4;stroke-dasharray:none"
           id="path3812"
           sodipodi:cx="37.953224"
           sodipodi:cy="984.54413"
           sodipodi:rx="4.355288"
           sodipodi:ry="4.355288"
           d="m 42.308512,984.54413 c 0,2.40536 -1.949929,4.35529 -4.355288,4.35529 -2.405359,0 -4.355288,-1.94993 -4.355288,-4.35529 0,-2.40536 1.949929,-4.35529 4.355288,-4.35529 2.405359,0 4.355288,1.94993 4.355288,4.35529 z"
           transform="matrix(1.5818581,0,0,1.5818581,-20.747737,-572.70069)" />
        <path
           transform="matrix(1.5818581,0,0,1.5818581,39.488484,-781.75581)"
           d="m 42.308512,984.54413 c 0,2.40536 -1.949929,4.35529 -4.355288,4.35529 -2.405359,0 -4.355288,-1.94993 -4.355288,-4.35529 0,-2.40536 1.949929,-4.35529 4.355288,-4.35529 2.405359,0 4.355288,1.94993 4.355288,4.35529 z"
           sodipodi:ry="4.355288"
           sodipodi:rx="4.355288"
           sodipodi:cy="984.54413"
           sodipodi:cx="37.953224"
           id="path3814"
           style="fill:none;stroke:#ff0000;stroke-width:0.24928494;stroke-miterlimit:4;stroke-dasharray:none"
           sodipodi:type="arc" />
      </g>
      <g
         transform="translate(0,-340.15748)"
         id="g3827">
        <g
           id="g3829">
          <g
             id="g3831"
             transform="translate(0,6.7556832)">
            <path
               transform="matrix(0.74754286,0,0,0.74754286,1.2372457,257.98632)"
               d="m 43.594192,1003.163 c 0,6.535 -5.297685,11.8327 -11.83271,11.8327 -6.535025,0 -11.832709,-5.2977 -11.832709,-11.8327 0,-6.535 5.297684,-11.83268 11.832709,-11.83268 6.535025,0 11.83271,5.29768 11.83271,11.83268 z"
               sodipodi:ry="11.832709"
               sodipodi:rx="11.832709"
               sodipodi:cy="1003.163"
               sodipodi:cx="31.761482"
               id="path3833"
               style="fill:none;stroke:#ff0000;stroke-width:0.50826722;stroke-miterlimit:4;stroke-dasharray:none"
               sodipodi:type="arc" />
            <path
               sodipodi:type="arc"
               style="fill:none;stroke:#ff0000;stroke-width:0.50826722;stroke-miterlimit:4;stroke-dasharray:none"
               id="path3835"
               sodipodi:cx="31.761482"
               sodipodi:cy="1003.163"
               sodipodi:rx="11.832709"
               sodipodi:ry="11.832709"
               d="m 43.594192,1003.163 c 0,6.535 -5.297685,11.8327 -11.83271,11.8327 -6.535025,0 -11.832709,-5.2977 -11.832709,-11.8327 0,-6.535 5.297684,-11.83268 11.832709,-11.83268 6.535025,0 11.83271,5.29768 11.83271,11.83268 z"
               transform="matrix(0.74754286,0,0,0.74754286,93.36323,257.98632)" />
          </g>
          <g
             transform="translate(0,-260.43307)"
             id="g3837">
            <path
               sodipodi:type="arc"
               style="fill:none;stroke:#ff0000;stroke-width:0.50826722;stroke-miterlimit:4;stroke-dasharray:none"
               id="path3839"
               sodipodi:cx="31.761482"
               sodipodi:cy="1003.163"
               sodipodi:rx="11.832709"
               sodipodi:ry="11.832709"
               d="m 43.594192,1003.163 c 0,6.535 -5.297685,11.8327 -11.83271,11.8327 -6.535025,0 -11.832709,-5.2977 -11.832709,-11.8327 0,-6.535 5.297684,-11.83268 11.832709,-11.83268 6.535025,0 11.83271,5.29768 11.83271,11.83268 z"
               transform="matrix(0.74754286,0,0,0.74754286,1.2372457,257.98632)" />
            <path
               transform="matrix(0.74754286,0,0,0.74754286,93.36323,257.98632)"
               d="m 43.594192,1003.163 c 0,6.535 -5.297685,11.8327 -11.83271,11.8327 -6.535025,0 -11.832709,-5.2977 -11.832709,-11.8327 0,-6.535 5.297684,-11.83268 11.832709,-11.83268 6.535025,0 11.83271,5.29768 11.83271,11.83268 z"
               sodipodi:ry="11.832709"
               sodipodi:rx="11.832709"
               sodipodi:cy="1003.163"
               sodipodi:cx="31.761482"
               id="path3841"
               style="fill:none;stroke:#ff0000;stroke-width:0.50826722;stroke-miterlimit:4;stroke-dasharray:none"
               sodipodi:type="arc" />
          </g>
        </g>
        <path
           transform="matrix(1.5818581,0,0,1.5818581,-20.747736,-572.70069)"
           d="m 42.308512,984.54413 c 0,2.40536 -1.949929,4.35529 -4.355288,4.35529 -2.405359,0 -4.355288,-1.94993 -4.355288,-4.35529 0,-2.40536 1.949929,-4.35529 4.355288,-4.35529 2.405359,0 4.355288,1.94993 4.355288,4.35529 z"
           sodipodi:ry="4.355288"
           sodipodi:rx="4.355288"
           sodipodi:cy="984.54413"
           sodipodi:cx="37.953224"
           id="path3843"
           style="fill:none;stroke:#ff0000;stroke-width:0.24928494;stroke-miterlimit:4;stroke-dasharray:none"
           sodipodi:type="arc" />
        <path
           sodipodi:type="arc"
           style="fill:none;stroke:#ff0000;stroke-width:0.24928494;stroke-miterlimit:4;stroke-dasharray:none"
           id="path3845"
           sodipodi:cx="37.953224"
           sodipodi:cy="984.54413"
           sodipodi:rx="4.355288"
           sodipodi:ry="4.355288"
           d="m 42.308512,984.54413 c 0,2.40536 -1.949929,4.35529 -4.355288,4.35529 -2.405359,0 -4.355288,-1.94993 -4.355288,-4.35529 0,-2.40536 1.949929,-4.35529 4.355288,-4.35529 2.405359,0 4.355288,1.94993 4.355288,4.35529 z"
           transform="matrix(1.5818581,0,0,1.5818581,39.488484,-781.75581)" />
      </g>
      <text
         sodipodi:linespacing="125%"
         id="text3848"
         y="71.500214"
         x="-735.41089"
         style="font-size:10px;font-style:normal;font-weight:normal;line-height:125%;letter-spacing:0px;word-spacing:0px;fill:#000000;fill-opacity:1;stroke:none;font-family:Sans"
         xml:space="preserve"
         transform="matrix(0,-1,1,0,0,0)"><tspan
           y="71.500214"
           x="-735.41089"
           id="tspan3850"
           sodipodi:role="line">trmm.net</tspan></text>
    </g>
    <g
       transform="matrix(0,1,-1,0,1056.3617,213.39873)"
       id="g3877">
      <path
         style="fill:none;stroke:#0000ff;stroke-width:0.35433072;stroke-miterlimit:4"
         d="m 35.933071,371.54724 70.866139,0 c 19.62992,0 35.43307,15.80315 35.43307,35.43307 l -3e-5,74.57849 -28.84606,0 0,120.47245 28.84645,0 -3.6e-4,223.55928 -28.84645,0 0,120.47244 28.84645,0 0,70.36613 c 0,19.6299 -15.80315,35.4331 -35.43307,35.4331 l -70.866139,0 C 16.30315,1051.8622 0.5,1036.059 0.5,1016.4291 l 0,-70.36613 27.846457,0 0,-120.47244 -27.846457,0 3.6e-4,-223.55928 27.846457,0 0,-120.47245 -27.846457,0 L 0.5,406.98031 c -9.476e-5,-19.62992 15.80315,-35.43307 35.433071,-35.43307 z"
         id="path3879"
         inkscape:connector-curvature="0"
         sodipodi:nodetypes="sssccccccccssssccccccccss" />
      <g
         id="g3881">
        <g
           id="g3883">
          <g
             id="g3885"
             transform="translate(0,6.7556835)">
            <path
               transform="matrix(0.74754286,0,0,0.74754286,1.2372457,257.98632)"
               d="m 43.594192,1003.163 c 0,6.535 -5.297685,11.8327 -11.83271,11.8327 -6.535025,0 -11.832709,-5.2977 -11.832709,-11.8327 0,-6.535 5.297684,-11.83268 11.832709,-11.83268 6.535025,0 11.83271,5.29768 11.83271,11.83268 z"
               sodipodi:ry="11.832709"
               sodipodi:rx="11.832709"
               sodipodi:cy="1003.163"
               sodipodi:cx="31.761482"
               id="path3887"
               style="fill:none;stroke:#ff0000;stroke-width:0.50826722;stroke-miterlimit:4;stroke-dasharray:none"
               sodipodi:type="arc" />
            <path
               sodipodi:type="arc"
               style="fill:none;stroke:#ff0000;stroke-width:0.50826722;stroke-miterlimit:4;stroke-dasharray:none"
               id="path3889"
               sodipodi:cx="31.761482"
               sodipodi:cy="1003.163"
               sodipodi:rx="11.832709"
               sodipodi:ry="11.832709"
               d="m 43.594192,1003.163 c 0,6.535 -5.297685,11.8327 -11.83271,11.8327 -6.535025,0 -11.832709,-5.2977 -11.832709,-11.8327 0,-6.535 5.297684,-11.83268 11.832709,-11.83268 6.535025,0 11.83271,5.29768 11.83271,11.83268 z"
               transform="matrix(0.74754286,0,0,0.74754286,93.36323,257.98632)" />
          </g>
          <g
             transform="translate(0,-260.43307)"
             id="g3891">
            <path
               sodipodi:type="arc"
               style="fill:none;stroke:#ff0000;stroke-width:0.50826722;stroke-miterlimit:4;stroke-dasharray:none"
               id="path3893"
               sodipodi:cx="31.761482"
               sodipodi:cy="1003.163"
               sodipodi:rx="11.832709"
               sodipodi:ry="11.832709"
               d="m 43.594192,1003.163 c 0,6.535 -5.297685,11.8327 -11.83271,11.8327 -6.535025,0 -11.832709,-5.2977 -11.832709,-11.8327 0,-6.535 5.297684,-11.83268 11.832709,-11.83268 6.535025,0 11.83271,5.29768 11.83271,11.83268 z"
               transform="matrix(0.74754286,0,0,0.74754286,1.2372457,257.98632)" />
            <path
               transform="matrix(0.74754286,0,0,0.74754286,93.36323,257.98632)"
               d="m 43.594192,1003.163 c 0,6.535 -5.297685,11.8327 -11.83271,11.8327 -6.535025,0 -11.832709,-5.2977 -11.832709,-11.8327 0,-6.535 5.297684,-11.83268 11.832709,-11.83268 6.535025,0 11.83271,5.29768 11.83271,11.83268 z"
               sodipodi:ry="11.832709"
               sodipodi:rx="11.832709"
               sodipodi:cy="1003.163"
               sodipodi:cx="31.761482"
               id="path3895"
               style="fill:none;stroke:#ff0000;stroke-width:0.50826722;stroke-miterlimit:4;stroke-dasharray:none"
               sodipodi:type="arc" />
          </g>
        </g>
        <path
           transform="matrix(1.5818581,0,0,1.5818581,-20.747737,-572.70069)"
           d="m 42.308512,984.54413 c 0,2.40536 -1.949929,4.35529 -4.355288,4.35529 -2.405359,0 -4.355288,-1.94993 -4.355288,-4.35529 0,-2.40536 1.949929,-4.35529 4.355288,-4.35529 2.405359,0 4.355288,1.94993 4.355288,4.35529 z"
           sodipodi:ry="4.355288"
           sodipodi:rx="4.355288"
           sodipodi:cy="984.54413"
           sodipodi:cx="37.953224"
           id="path3897"
           style="fill:none;stroke:#ff0000;stroke-width:0.24928494;stroke-miterlimit:4;stroke-dasharray:none"
           sodipodi:type="arc" />
        <path
           sodipodi:type="arc"
           style="fill:none;stroke:#ff0000;stroke-width:0.24928494;stroke-miterlimit:4;stroke-dasharray:none"
           id="path3899"
           sodipodi:cx="37.953224"
           sodipodi:cy="984.54413"
           sodipodi:rx="4.355288"
           sodipodi:ry="4.355288"
           d="m 42.308512,984.54413 c 0,2.40536 -1.949929,4.35529 -4.355288,4.35529 -2.405359,0 -4.355288,-1.94993 -4.355288,-4.35529 0,-2.40536 1.949929,-4.35529 4.355288,-4.35529 2.405359,0 4.355288,1.94993 4.355288,4.35529 z"
           transform="matrix(1.5818581,0,0,1.5818581,39.488484,-781.75581)" />
      </g>
      <g
         id="g3901"
         transform="translate(0,-340.15748)">
        <g
           id="g3903">
          <g
             transform="translate(0,6.7556832)"
             id="g3905">
            <path
               sodipodi:type="arc"
               style="fill:none;stroke:#ff0000;stroke-width:0.50826722;stroke-miterlimit:4;stroke-dasharray:none"
               id="path3907"
               sodipodi:cx="31.761482"
               sodipodi:cy="1003.163"
               sodipodi:rx="11.832709"
               sodipodi:ry="11.832709"
               d="m 43.594192,1003.163 c 0,6.535 -5.297685,11.8327 -11.83271,11.8327 -6.535025,0 -11.832709,-5.2977 -11.832709,-11.8327 0,-6.535 5.297684,-11.83268 11.832709,-11.83268 6.535025,0 11.83271,5.29768 11.83271,11.83268 z"
               transform="matrix(0.74754286,0,0,0.74754286,1.2372457,257.98632)" />
            <path
               transform="matrix(0.74754286,0,0,0.74754286,93.36323,257.98632)"
               d="m 43.594192,1003.163 c 0,6.535 -5.297685,11.8327 -11.83271,11.8327 -6.535025,0 -11.832709,-5.2977 -11.832709,-11.8327 0,-6.535 5.297684,-11.83268 11.832709,-11.83268 6.535025,0 11.83271,5.29768 11.83271,11.83268 z"
               sodipodi:ry="11.832709"
               sodipodi:rx="11.832709"
               sodipodi:cy="1003.163"
               sodipodi:cx="31.761482"
               id="path3909"
               style="fill:none;stroke:#ff0000;stroke-width:0.50826722;stroke-miterlimit:4;stroke-dasharray:none"
               sodipodi:type="arc" />
          </g>
          <g
             id="g3911"
             transform="translate(0,-260.43307)">
            <path
               transform="matrix(0.74754286,0,0,0.74754286,1.2372457,257.98632)"
               d="m 43.594192,1003.163 c 0,6.535 -5.297685,11.8327 -11.83271,11.8327 -6.535025,0 -11.832709,-5.2977 -11.832709,-11.8327 0,-6.535 5.297684,-11.83268 11.832709,-11.83268 6.535025,0 11.83271,5.29768 11.83271,11.83268 z"
               sodipodi:ry="11.832709"
               sodipodi:rx="11.832709"
               sodipodi:cy="1003.163"
               sodipodi:cx="31.761482"
               id="path3913"
               style="fill:none;stroke:#ff0000;stroke-width:0.50826722;stroke-miterlimit:4;stroke-dasharray:none"
               sodipodi:type="arc" />
            <path
               sodipodi:type="arc"
               style="fill:none;stroke:#ff0000;stroke-width:0.50826722;stroke-miterlimit:4;stroke-dasharray:none"
               id="path3915"
               sodipodi:cx="31.761482"
               sodipodi:cy="1003.163"
               sodipodi:rx="11.832709"
               sodipodi:ry="11.832709"
               d="m 43.594192,1003.163 c 0,6.535 -5.297685,11.8327 -11.83271,11.8327 -6.535025,0 -11.832709,-5.2977 -11.832709,-11.8327 0,-6.535 5.297684,-11.83268 11.832709,-11.83268 6.535025,0 11.83271,5.29768 11.83271,11.83268 z"
               transform="matrix(0.74754286,0,0,0.74754286,93.36323,257.98632)" />
          </g>
        </g>
        <path
           sodipodi:type="arc"
           style="fill:none;stroke:#ff0000;stroke-width:0.24928494;stroke-miterlimit:4;stroke-dasharray:none"
           id="path3917"
           sodipodi:cx="37.953224"
           sodipodi:cy="984.54413"
           sodipodi:rx="4.355288"
           sodipodi:ry="4.355288"
           d="m 42.308512,984.54413 c 0,2.40536 -1.949929,4.35529 -4.355288,4.35529 -2.405359,0 -4.355288,-1.94993 -4.355288,-4.35529 0,-2.40536 1.949929,-4.35529 4.355288,-4.35529 2.405359,0 4.355288,1.94993 4.355288,4.35529 z"
           transform="matrix(1.5818581,0,0,1.5818581,-20.747736,-572.70069)" />
        <path
           transform="matrix(1.5818581,0,0,1.5818581,39.488484,-781.75581)"
           d="m 42.308512,984.54413 c 0,2.40536 -1.949929,4.35529 -4.355288,4.35529 -2.405359,0 -4.355288,-1.94993 -4.355288,-4.35529 0,-2.40536 1.949929,-4.35529 4.355288,-4.35529 2.405359,0 4.355288,1.94993 4.355288,4.35529 z"
           sodipodi:ry="4.355288"
           sodipodi:rx="4.355288"
           sodipodi:cy="984.54413"
           sodipodi:cx="37.953224"
           id="path3919"
           style="fill:none;stroke:#ff0000;stroke-width:0.24928494;stroke-miterlimit:4;stroke-dasharray:none"
           sodipodi:type="arc" />
      </g>
      <text
         xml:space="preserve"
         style="font-size:10px;font-style:normal;font-weight:normal;line-height:125%;letter-spacing:0px;word-spacing:0px;fill:#000000;fill-opacity:1;stroke:none;font-family:Sans"
         x="-735.41089"
         y="71.500206"
         id="text3921"
         sodipodi:linespacing="125%"
         transform="matrix(0,-1,1,0,0,0)"><tspan
           sodipodi:role="line"
           id="tspan3923"
           x="-735.41089"
           y="71.500206">trmm.net</tspan></text>
    </g>
    <g
       id="g3925"
       transform="matrix(0,1,-1,0,1056.3617,359.80824)">
      <path
         sodipodi:nodetypes="sssccccccccssssccccccccss"
         inkscape:connector-curvature="0"
         id="path3927"
         d="m 35.933071,371.54724 70.866139,0 c 19.62992,0 35.43307,15.80315 35.43307,35.43307 l -3e-5,74.57849 -28.84606,0 0,120.47245 28.84645,0 -3.6e-4,223.55928 -28.84645,0 0,120.47244 28.84645,0 0,70.36613 c 0,19.6299 -15.80315,35.4331 -35.43307,35.4331 l -70.866139,0 C 16.30315,1051.8622 0.5,1036.059 0.5,1016.4291 l 0,-70.36613 27.846457,0 0,-120.47244 -27.846457,0 3.6e-4,-223.55928 27.846457,0 0,-120.47245 -27.846457,0 L 0.5,406.98031 c -9.476e-5,-19.62992 15.80315,-35.43307 35.433071,-35.43307 z"
         style="fill:none;stroke:#0000ff;stroke-width:0.35433072;stroke-miterlimit:4" />
      <g
         id="g3929">
        <g
           id="g3931">
          <g
             transform="translate(0,6.7556835)"
             id="g3933">
            <path
               sodipodi:type="arc"
               style="fill:none;stroke:#ff0000;stroke-width:0.50826722;stroke-miterlimit:4;stroke-dasharray:none"
               id="path3935"
               sodipodi:cx="31.761482"
               sodipodi:cy="1003.163"
               sodipodi:rx="11.832709"
               sodipodi:ry="11.832709"
               d="m 43.594192,1003.163 c 0,6.535 -5.297685,11.8327 -11.83271,11.8327 -6.535025,0 -11.832709,-5.2977 -11.832709,-11.8327 0,-6.535 5.297684,-11.83268 11.832709,-11.83268 6.535025,0 11.83271,5.29768 11.83271,11.83268 z"
               transform="matrix(0.74754286,0,0,0.74754286,1.2372457,257.98632)" />
            <path
               transform="matrix(0.74754286,0,0,0.74754286,93.36323,257.98632)"
               d="m 43.594192,1003.163 c 0,6.535 -5.297685,11.8327 -11.83271,11.8327 -6.535025,0 -11.832709,-5.2977 -11.832709,-11.8327 0,-6.535 5.297684,-11.83268 11.832709,-11.83268 6.535025,0 11.83271,5.29768 11.83271,11.83268 z"
               sodipodi:ry="11.832709"
               sodipodi:rx="11.832709"
               sodipodi:cy="1003.163"
               sodipodi:cx="31.761482"
               id="path3937"
               style="fill:none;stroke:#ff0000;stroke-width:0.50826722;stroke-miterlimit:4;stroke-dasharray:none"
               sodipodi:type="arc" />
          </g>
          <g
             id="g3939"
             transform="translate(0,-260.43307)">
            <path
               transform="matrix(0.74754286,0,0,0.74754286,1.2372457,257.98632)"
               d="m 43.594192,1003.163 c 0,6.535 -5.297685,11.8327 -11.83271,11.8327 -6.535025,0 -11.832709,-5.2977 -11.832709,-11.8327 0,-6.535 5.297684,-11.83268 11.832709,-11.83268 6.535025,0 11.83271,5.29768 11.83271,11.83268 z"
               sodipodi:ry="11.832709"
               sodipodi:rx="11.832709"
               sodipodi:cy="1003.163"
               sodipodi:cx="31.761482"
               id="path3941"
               style="fill:none;stroke:#ff0000;stroke-width:0.50826722;stroke-miterlimit:4;stroke-dasharray:none"
               sodipodi:type="arc" />
            <path
               sodipodi:type="arc"
               style="fill:none;stroke:#ff0000;stroke-width:0.50826722;stroke-miterlimit:4;stroke-dasharray:none"
               id="path3943"
               sodipodi:cx="31.761482"
               sodipodi:cy="1003.163"
               sodipodi:rx="11.832709"
               sodipodi:ry="11.832709"
               d="m 43.594192,1003.163 c 0,6.535 -5.297685,11.8327 -11.83271,11.8327 -6.535025,0 -11.832709,-5.2977 -11.832709,-11.8327 0,-6.535 5.297684,-11.83268 11.832709,-11.83268 6.535025,0 11.83271,5.29768 11.83271,11.83268 z"
               transform="matrix(0.74754286,0,0,0.74754286,93.36323,257.98632)" />
          </g>
        </g>
        <path
           sodipodi:type="arc"
           style="fill:none;stroke:#ff0000;stroke-width:0.24928494;stroke-miterlimit:4;stroke-dasharray:none"
           id="path3945"
           sodipodi:cx="37.953224"
           sodipodi:cy="984.54413"
           sodipodi:rx="4.355288"
           sodipodi:ry="4.355288"
           d="m 42.308512,984.54413 c 0,2.40536 -1.949929,4.35529 -4.355288,4.35529 -2.405359,0 -4.355288,-1.94993 -4.355288,-4.35529 0,-2.40536 1.949929,-4.35529 4.355288,-4.35529 2.405359,0 4.355288,1.94993 4.355288,4.35529 z"
           transform="matrix(1.5818581,0,0,1.5818581,-20.747737,-572.70069)" />
        <path
           transform="matrix(1.5818581,0,0,1.5818581,39.488484,-781.75581)"
           d="m 42.308512,984.54413 c 0,2.40536 -1.949929,4.35529 -4.355288,4.35529 -2.405359,0 -4.355288,-1.94993 -4.355288,-4.35529 0,-2.40536 1.949929,-4.35529 4.355288,-4.35529 2.405359,0 4.355288,1.94993 4.355288,4.35529 z"
           sodipodi:ry="4.355288"
           sodipodi:rx="4.355288"
           sodipodi:cy="984.54413"
           sodipodi:cx="37.953224"
           id="path3947"
           style="fill:none;stroke:#ff0000;stroke-width:0.24928494;stroke-miterlimit:4;stroke-dasharray:none"
           sodipodi:type="arc" />
      </g>
      <g
         transform="translate(0,-340.15748)"
         id="g3949">
        <g
           id="g3951">
          <g
             id="g3953"
             transform="translate(0,6.7556832)">
            <path
               transform="matrix(0.74754286,0,0,0.74754286,1.2372457,257.98632)"
               d="m 43.594192,1003.163 c 0,6.535 -5.297685,11.8327 -11.83271,11.8327 -6.535025,0 -11.832709,-5.2977 -11.832709,-11.8327 0,-6.535 5.297684,-11.83268 11.832709,-11.83268 6.535025,0 11.83271,5.29768 11.83271,11.83268 z"
               sodipodi:ry="11.832709"
               sodipodi:rx="11.832709"
               sodipodi:cy="1003.163"
               sodipodi:cx="31.761482"
               id="path3955"
               style="fill:none;stroke:#ff0000;stroke-width:0.50826722;stroke-miterlimit:4;stroke-dasharray:none"
               sodipodi:type="arc" />
            <path
               sodipodi:type="arc"
               style="fill:none;stroke:#ff0000;stroke-width:0.50826722;stroke-miterlimit:4;stroke-dasharray:none"
               id="path3957"
               sodipodi:cx="31.761482"
               sodipodi:cy="1003.163"
               sodipodi:rx="11.832709"
               sodipodi:ry="11.832709"
               d="m 43.594192,1003.163 c 0,6.535 -5.297685,11.8327 -11.83271,11.8327 -6.535025,0 -11.832709,-5.2977 -11.832709,-11.8327 0,-6.535 5.297684,-11.83268 11.832709,-11.83268 6.535025,0 11.83271,5.29768 11.83271,11.83268 z"
               transform="matrix(0.74754286,0,0,0.74754286,93.36323,257.98632)" />
          </g>
          <g
             transform="translate(0,-260.43307)"
             id="g3959">
            <path
               sodipodi:type="arc"
               style="fill:none;stroke:#ff0000;stroke-width:0.50826722;stroke-miterlimit:4;stroke-dasharray:none"
               id="path3961"
               sodipodi:cx="31.761482"
               sodipodi:cy="1003.163"
               sodipodi:rx="11.832709"
               sodipodi:ry="11.832709"
               d="m 43.594192,1003.163 c 0,6.535 -5.297685,11.8327 -11.83271,11.8327 -6.535025,0 -11.832709,-5.2977 -11.832709,-11.8327 0,-6.535 5.297684,-11.83268 11.832709,-11.83268 6.535025,0 11.83271,5.29768 11.83271,11.83268 z"
               transform="matrix(0.74754286,0,0,0.74754286,1.2372457,257.98632)" />
            <path
               transform="matrix(0.74754286,0,0,0.74754286,93.36323,257.98632)"
               d="m 43.594192,1003.163 c 0,6.535 -5.297685,11.8327 -11.83271,11.8327 -6.535025,0 -11.832709,-5.2977 -11.832709,-11.8327 0,-6.535 5.297684,-11.83268 11.832709,-11.83268 6.535025,0 11.83271,5.29768 11.83271,11.83268 z"
               sodipodi:ry="11.832709"
               sodipodi:rx="11.832709"
               sodipodi:cy="1003.163"
               sodipodi:cx="31.761482"
               id="path3963"
               style="fill:none;stroke:#ff0000;stroke-width:0.50826722;stroke-miterlimit:4;stroke-dasharray:none"
               sodipodi:type="arc" />
          </g>
        </g>
        <path
           transform="matrix(1.5818581,0,0,1.5818581,-20.747736,-572.70069)"
           d="m 42.308512,984.54413 c 0,2.40536 -1.949929,4.35529 -4.355288,4.35529 -2.405359,0 -4.355288,-1.94993 -4.355288,-4.35529 0,-2.40536 1.949929,-4.35529 4.355288,-4.35529 2.405359,0 4.355288,1.94993 4.355288,4.35529 z"
           sodipodi:ry="4.355288"
           sodipodi:rx="4.355288"
           sodipodi:cy="984.54413"
           sodipodi:cx="37.953224"
           id="path3965"
           style="fill:none;stroke:#ff0000;stroke-width:0.24928494;stroke-miterlimit:4;stroke-dasharray:none"
           sodipodi:type="arc" />
        <path
           sodipodi:type="arc"
           style="fill:none;stroke:#ff0000;stroke-width:0.24928494;stroke-miterlimit:4;stroke-dasharray:none"
           id="path3967"
           sodipodi:cx="37.953224"
           sodipodi:cy="984.54413"
           sodipodi:rx="4.355288"
           sodipodi:ry="4.355288"
           d="m 42.308512,984.54413 c 0,2.40536 -1.949929,4.35529 -4.355288,4.35529 -2.405359,0 -4.355288,-1.94993 -4.355288,-4.35529 0,-2.40536 1.949929,-4.35529 4.355288,-4.35529 2.405359,0 4.355288,1.94993 4.355288,4.35529 z"
           transform="matrix(1.5818581,0,0,1.5818581,39.488484,-781.75581)" />
      </g>
      <text
         sodipodi:linespacing="125%"
         id="text3969"
         y="71.500214"
         x="-735.41089"
         style="font-size:10px;font-style:normal;font-weight:normal;line-height:125%;letter-spacing:0px;word-spacing:0px;fill:#000000;fill-opacity:1;stroke:none;font-family:Sans"
         xml:space="preserve"
         transform="matrix(0,-1,1,0,0,0)"><tspan
           y="71.500214"
           x="-735.41089"
           id="tspan3971"
           sodipodi:role="line">trmm.net</tspan></text>
    </g>
  </g>
</svg>
